<?xml version="1.0" encoding="utf-8"?>
<!-- Generator: Adobe Illustrator 22.0.1, SVG Export Plug-In . SVG Version: 6.00 Build 0)  -->
<svg version="1.1"
	 id="svg2" inkscape:version="0.48.4 r9939" sodipodi:docname="New document 1" xmlns:cc="http://creativecommons.org/ns#" xmlns:dc="http://purl.org/dc/elements/1.1/" xmlns:inkscape="http://www.inkscape.org/namespaces/inkscape" xmlns:rdf="http://www.w3.org/1999/02/22-rdf-syntax-ns#" xmlns:sodipodi="http://sodipodi.sourceforge.net/DTD/sodipodi-0.dtd" xmlns:svg="http://www.w3.org/2000/svg"
	 xmlns="http://www.w3.org/2000/svg" xmlns:xlink="http://www.w3.org/1999/xlink" x="0px" y="0px" viewBox="0 0 98.2 28.5"
	 style="enable-background:new 0 0 98.2 28.5;" xml:space="preserve">
<style type="text/css">
	.st0{fill:#1B1B1B;}
	.st1{fill:none;stroke:#1B1B1B;stroke-width:0.282;stroke-miterlimit:10;}
	.st2{fill:#3878BB;}
	.st3{fill:#8A8B8B;}
	.st4{fill:#EC675F;}
</style>
<sodipodi:namedview  bordercolor="#666666" borderopacity="1.0" fit-margin-bottom="0" fit-margin-left="0" fit-margin-right="0" fit-margin-top="0" id="base" inkscape:current-layer="layer1" inkscape:cx="78.519329" inkscape:cy="19.383405" inkscape:document-units="px" inkscape:pageopacity="0" inkscape:pageshadow="2" inkscape:window-height="803" inkscape:window-maximized="1" inkscape:window-width="1536" inkscape:window-x="-8" inkscape:window-y="-8" inkscape:zoom="5.7194494" pagecolor="#ffffff" showgrid="false">
	</sodipodi:namedview>
<g id="layer1" transform="translate(-290.48611,-508.59873)" inkscape:groupmode="layer" inkscape:label="Layer 1">
	<path id="path3462" inkscape:connector-curvature="0" class="st0" d="M345.2,533.1h-5.5v-9.3h-8.1v9.3h-5.5V512h5.5v7.7h8.1V512
		h5.5V533.1L345.2,533.1z"/>
	<path id="path3464" inkscape:connector-curvature="0" class="st0" d="M368.3,522.6c0,2-0.4,3.7-1.3,5.3s-2,2.7-3.4,3.6
		c-1,0.6-2.2,1.1-3.4,1.3c-1.2,0.2-2.7,0.4-4.4,0.4h-7.5V512h7.7c1.7,0,3.2,0.1,4.5,0.4c1.2,0.3,2.3,0.7,3.2,1.2
		c1.5,0.9,2.6,2.1,3.4,3.6C367.9,518.8,368.3,520.5,368.3,522.6z M362.7,522.6c0-1.4-0.3-2.6-0.8-3.6s-1.3-1.8-2.4-2.3
		c-0.6-0.3-1.1-0.5-1.7-0.6s-1.5-0.2-2.6-0.2h-1.4v13.2h1.4c1.3,0,2.2-0.1,2.9-0.2c0.6-0.1,1.2-0.3,1.8-0.7c1-0.6,1.7-1.3,2.2-2.3
		C362.4,525.1,362.7,524,362.7,522.6L362.7,522.6z"/>
	<path id="path3466" inkscape:connector-curvature="0" class="st0" d="M388.6,533.1h-6.3l-4.6-7l-4.6,7h-6l7.5-10.7l-7.3-10.5h6.3
		l4.4,6.6l4.5-6.6h6l-7.4,10.3L388.6,533.1L388.6,533.1z"/>
	<g id="g4318" transform="matrix(1.25,0,0,-1.25,284.19705,541.83045)">
		<path id="path3383" inkscape:connector-curvature="0" class="st1" d="M13.7,17.4l8.2-11.6"/>
		<path id="path3387" inkscape:connector-curvature="0" class="st1" d="M13.7,17.4l10.4-3.1"/>
		<path id="path3391" inkscape:connector-curvature="0" class="st1" d="M13.7,17.4L24.4,23"/>
		<path id="path3395" inkscape:connector-curvature="0" class="st1" d="M7.1,9.2L22,5.8"/>
		<path id="path3399" inkscape:connector-curvature="0" class="st1" d="M13.7,17.4l-5,5.5"/>
		<g id="g3401">
			<path id="path3411" inkscape:connector-curvature="0" class="st2" d="M18.1,17.4c0-2.4-2-4.4-4.4-4.4s-4.4,2-4.4,4.4
				s2,4.4,4.4,4.4C16.2,21.8,18.1,19.8,18.1,17.4"/>
			<path id="path3415" inkscape:connector-curvature="0" class="st1" d="M18.1,17.4c0-2.4-2-4.4-4.4-4.4s-4.4,2-4.4,4.4
				s2,4.4,4.4,4.4C16.2,21.8,18.1,19.8,18.1,17.4z"/>
			<path id="path3419" inkscape:connector-curvature="0" class="st3" d="M23.9,5.8c0-1.1-0.9-1.9-1.9-1.9s-2,0.9-2,1.9
				c0,1.1,0.9,1.9,1.9,1.9S23.9,6.9,23.9,5.8"/>
			<path id="path3423" inkscape:connector-curvature="0" class="st1" d="M23.9,5.8c0-1.1-0.9-1.9-1.9-1.9s-2,0.9-2,1.9
				c0,1.1,0.9,1.9,1.9,1.9S23.9,6.9,23.9,5.8z"/>
			<path id="path3427" inkscape:connector-curvature="0" class="st3" d="M26.3,14.3c0-1.1-0.9-1.9-1.9-1.9c-1.1,0-1.9,0.9-1.9,1.9
				s0.9,1.9,1.9,1.9C25.5,16.2,26.3,15.4,26.3,14.3"/>
			<path id="path3431" inkscape:connector-curvature="0" class="st1" d="M26.3,14.3c0-1.1-0.9-1.9-1.9-1.9c-1.1,0-1.9,0.9-1.9,1.9
				s0.9,1.9,1.9,1.9C25.5,16.2,26.3,15.4,26.3,14.3z"/>
			<path id="path3435" inkscape:connector-curvature="0" class="st4" d="M27.5,23c0-1.7-1.4-3.1-3.1-3.1s-3.1,1.4-3.1,3.1
				s1.4,3.1,3.1,3.1S27.5,24.7,27.5,23"/>
			<path id="path3439" inkscape:connector-curvature="0" class="st1" d="M27.5,23c0-1.7-1.4-3.1-3.1-3.1s-3.1,1.4-3.1,3.1
				s1.4,3.1,3.1,3.1S27.5,24.7,27.5,23z"/>
			<path id="path3443" inkscape:connector-curvature="0" class="st3" d="M9,9c0-1-0.9-1.9-1.9-1.9C6,7.1,5.2,8,5.2,9
				c0,1.1,0.8,2,1.9,2C8.1,11,9,10.1,9,9"/>
			<path id="path3447" inkscape:connector-curvature="0" class="st1" d="M9,9c0-1-0.9-1.9-1.9-1.9C6,7.1,5.2,8,5.2,9
				c0,1.1,0.8,2,1.9,2C8.1,11,9,10.1,9,9z"/>
			<path id="path3451" inkscape:connector-curvature="0" class="st3" d="M9.9,23.9C9.9,22.8,9,22,8,22c-1.1,0-2,0.8-2,1.9
				s0.9,1.9,1.9,1.9C9,25.8,9.9,24.9,9.9,23.9"/>
			<g id="g3453" transform="translate(9.8843,23.877)">
				<path id="path3455" inkscape:connector-curvature="0" class="st1" d="M0,0c0-1.1-0.9-1.9-1.9-1.9C-3-1.9-3.8-1.1-3.8,0
					s0.9,1.9,1.9,1.9S0,1.1,0,0z"/>
			</g>
		</g>
	</g>
</g>
</svg>
